<svg width="67" height="66" viewBox="0 0 67 66" fill="none" xmlns="http://www.w3.org/2000/svg">
<g opacity="0.2">
<path d="M39.0759 18.0556C37.5651 24.3797 34.8807 23.1736 33.5633 28.6889C25.8031 26.8112 21.0238 18.958 22.8896 11.1478C24.7547 3.33824 32.5591 -1.47145 40.3196 0.406274C37.6845 11.4366 40.4276 12.3994 39.0759 18.0556Z" fill="white"/>
<path d="M18.6798 22.7951C24.2644 26.1278 22.2682 28.2814 27.1382 31.188C22.9088 37.8998 13.8898 40.0042 6.99301 35.8884C0.0965177 31.7726 -2.06632 22.9946 2.16302 16.2829C11.9035 22.0958 13.6842 19.8141 18.6798 22.7951Z" fill="white"/>
<path d="M16.8049 43.3459C21.7488 39.1143 23.224 41.6834 27.5353 37.9935C32.7466 44.1156 32.0217 53.315 25.917 58.5409C19.8118 63.7669 10.6381 63.0391 5.42764 56.9175C14.0493 49.5368 12.3829 47.1304 16.8049 43.3459Z" fill="white"/>
<path d="M35.8831 51.3481C33.389 45.5202 36.2908 44.9262 34.1165 39.8444C41.5568 36.866 50.0851 40.2856 53.1645 47.4825C56.2436 54.6793 52.7078 62.9283 45.2676 65.907C40.9194 55.7426 38.1137 56.5609 35.8831 51.3481Z" fill="white"/>
<path d="M49.7208 35.6076C43.3155 36.1193 43.623 33.1597 38.0381 33.606C37.4178 25.5529 43.3277 18.5111 51.2373 17.879C59.1467 17.2484 66.0623 23.2654 66.6824 31.3193C55.5108 32.2112 55.4491 35.1505 49.7208 35.6076Z" fill="white"/>
</g>
</svg>
