<svg width="48" height="40" viewBox="0 0 48 40" fill="none" xmlns="http://www.w3.org/2000/svg">
<path d="M27.2199 37.1041C26.5279 36.3416 26.5279 35.1784 27.2199 34.4159L39.0837 21.3441C39.7757 20.5816 39.7757 19.4184 39.0837 18.6559L27.2199 5.58413C26.5279 4.82165 26.5279 3.65835 27.2199 2.89587L28.3672 1.63178C29.1609 0.757282 30.5355 0.757282 31.3292 1.63178L46.7801 18.6559C47.4721 19.4184 47.4721 20.5816 46.7801 21.3441L31.3292 38.3682C30.5355 39.2427 29.1609 39.2427 28.3672 38.3682L27.2199 37.1041Z" fill="#FDAE0E"/>
<path opacity="0.6" d="M1.21992 37.1041C0.527898 36.3416 0.527899 35.1784 1.21992 34.4159L13.0837 21.3441C13.7757 20.5816 13.7757 19.4184 13.0837 18.6559L1.21991 5.58413C0.527895 4.82165 0.527896 3.65835 1.21992 2.89587L2.3672 1.63178C3.16088 0.757282 4.53548 0.757282 5.32917 1.63178L20.7801 18.6559C21.4721 19.4184 21.4721 20.5816 20.7801 21.3441L5.32917 38.3682C4.53549 39.2427 3.16088 39.2427 2.3672 38.3682L1.21992 37.1041Z" fill="#FDAE0E"/>
</svg>
