<svg width="48" height="48" viewBox="0 0 48 48" fill="none" xmlns="http://www.w3.org/2000/svg">
<path d="M24 48C37.2548 48 48 37.2548 48 24C48 10.7452 37.2548 0 24 0C10.7452 0 0 10.7452 0 24C0 37.2548 10.7452 48 24 48Z" fill="#E70209"/>
<path d="M26.4777 18.1564C25.9323 20.425 24.9632 19.9924 24.4876 21.9709C21.6861 21.2973 19.9607 18.4801 20.6343 15.6784C21.3076 12.8768 24.1251 11.1515 26.9267 11.8251C25.9754 15.782 26.9657 16.1273 26.4777 18.1564Z" fill="#F0F0F0"/>
<path d="M19.2081 19.8375C21.1972 21.0572 20.4862 21.8453 22.2208 22.9091C20.7144 25.3655 17.502 26.1356 15.0456 24.6294C12.5893 23.1231 11.8189 19.9105 13.3253 17.4542C16.7946 19.5816 17.4288 18.7465 19.2081 19.8375Z" fill="#F0F0F0"/>
<path d="M18.5604 27.2711C20.3352 25.7563 20.8648 26.676 22.4125 25.355C24.2833 27.5466 24.023 30.8399 21.8315 32.7107C19.6398 34.5815 16.3466 34.3209 14.4761 32.1295C17.5711 29.4874 16.9729 28.6259 18.5604 27.2711Z" fill="#F0F0F0"/>
<path d="M25.43 30.1842C24.5375 28.0282 25.5758 27.8085 24.7978 25.9285C27.4602 24.8267 30.512 26.0918 31.6139 28.7542C32.7158 31.4166 31.4505 34.4682 28.7881 35.5702C27.2321 31.8099 26.2282 32.1127 25.43 30.1842Z" fill="#F0F0F0"/>
<path d="M30.3234 24.5509C27.9972 24.7334 28.1089 23.6778 26.0806 23.837C25.8553 20.9646 28.0016 18.4529 30.8742 18.2274C33.7467 18.0025 36.2583 20.1486 36.4835 23.0213C32.4262 23.3394 32.4038 24.3878 30.3234 24.5509Z" fill="#F0F0F0"/>
</svg>
