<svg width="48" height="40" viewBox="0 0 48 40" fill="none" xmlns="http://www.w3.org/2000/svg">
<path d="M20.7801 2.89587C21.4721 3.65835 21.4721 4.82165 20.7801 5.58413L8.91629 18.6559C8.22427 19.4184 8.22427 20.5816 8.91629 21.3441L20.7801 34.4159C21.4721 35.1783 21.4721 36.3416 20.7801 37.1041L19.6328 38.3682C18.8391 39.2427 17.4645 39.2427 16.6708 38.3682L1.21992 21.3441C0.527899 20.5816 0.527899 19.4184 1.21992 18.6559L16.6708 1.63178C17.4645 0.757282 18.8391 0.757281 19.6328 1.63178L20.7801 2.89587Z" fill="#FDAE0E"/>
<path opacity="0.6" d="M46.7801 2.89587C47.4721 3.65835 47.4721 4.82165 46.7801 5.58413L34.9163 18.6559C34.2243 19.4184 34.2243 20.5816 34.9163 21.3441L46.7801 34.4159C47.4721 35.1783 47.4721 36.3416 46.7801 37.1041L45.6328 38.3682C44.8391 39.2427 43.4645 39.2427 42.6708 38.3682L27.2199 21.3441C26.5279 20.5816 26.5279 19.4184 27.2199 18.6559L42.6708 1.63178C43.4645 0.757282 44.8391 0.757281 45.6328 1.63178L46.7801 2.89587Z" fill="#FDAE0E"/>
</svg>
