<svg width="30" height="32" viewBox="0 0 30 32" fill="none" xmlns="http://www.w3.org/2000/svg">
<path d="M29.02 8.02442C27.1938 8.02442 25.5088 7.41941 24.1556 6.39879C22.6038 5.22879 21.4888 3.51254 21.095 1.53441C20.9975 1.04566 20.945 0.541289 20.94 0.0244141H15.7231V14.2794L15.7169 22.0875C15.7169 24.175 14.3575 25.945 12.4731 26.5675C11.9263 26.7482 11.3356 26.8338 10.7206 26.8C9.93563 26.7569 9.20001 26.52 8.56063 26.1375C7.20001 25.3238 6.27751 23.8475 6.25251 22.1588C6.21313 19.5194 8.34688 17.3675 10.9844 17.3675C11.505 17.3675 12.005 17.4525 12.4731 17.6069V13.7107V12.31C11.9794 12.2369 11.4769 12.1988 10.9688 12.1988C8.08188 12.1988 5.38188 13.3988 3.45188 15.5607C1.99313 17.1944 1.11813 19.2788 0.983134 21.4644C0.806259 24.3357 1.85688 27.065 3.89438 29.0788C4.19376 29.3744 4.50813 29.6488 4.83688 29.9019C6.58376 31.2463 8.71938 31.975 10.9688 31.975C11.4769 31.975 11.9794 31.9375 12.4731 31.8644C14.5744 31.5532 16.5131 30.5913 18.0431 29.0788C19.9231 27.2207 20.9619 24.7538 20.9731 22.1282L20.9463 10.4682C21.8431 11.16 22.8238 11.7325 23.8763 12.1769C25.5131 12.8675 27.2488 13.2175 29.035 13.2169V9.42879V8.02316C29.0363 8.02442 29.0213 8.02442 29.02 8.02442Z" fill="#E70209"/>
</svg>
