<svg width="38" height="28" viewBox="0 0 38 28" fill="none" xmlns="http://www.w3.org/2000/svg">
<path d="M37.5246 5.57679C37.1643 2.62142 35.5207 0.767676 32.6034 0.49386C29.2632 0.180422 22.0324 0 18.6785 0C11.8182 0 8.75246 0.174054 5.50826 0.522869C2.41663 0.854703 1.06324 2.2818 0.531278 5.22798C0.158702 7.29257 0 9.22626 0 13.7962C0 17.9013 0.186628 20.4831 0.475426 22.6553C0.872522 25.6382 2.8437 27.3144 5.73235 27.5642C9.09303 27.855 15.8253 28 19.1539 28C22.3702 28 29.6085 27.8259 32.8269 27.4481C35.7073 27.1099 37.0771 25.5116 37.5246 22.5683C37.5246 22.5683 38 19.344 38 13.7672C38 10.5918 37.7766 7.63855 37.5246 5.57679ZM14.9596 19.5478V8.20033L25.361 13.816L14.9596 19.5478Z" fill="#E70209"/>
</svg>
